#!OML:ASF E:\Steps\Project 1\Capture day 1\Session 2\Subject.ASF
:FULLY-SPECIFIED
:DEGREES
152
root -1.21483 15.9352 35.2928 -153.609 0.595275 177.615
lowerback -30.8987 -1.63603 -5.73662
upperback -1.21102 0.729031 -0.493083
thorax 14.8108 0.270646 2.95593
lowerneck -1.32653 3.55747 -4.08066
upperneck 23.1246 1.45825 8.30942
head 7.1152 0.214379 3.40593
rclavicle 4.32357e-015 1.41137e-014
rhumerus -34.4301 -22.0303 -77.1981
rradius 27.629
rwrist 1.65954
rhand -3.20896 -56.6115
rfingers 7.12502
rthumb 22.5134 -85.3191
lclavicle 4.32357e-015 1.41137e-014
lhumerus -31.5131 11.5376 78.5026
lradius 15.8888
lwrist -11.6239
lhand -18.1819 -12.6042
lfingers 7.12502
lthumb 8.09475 17.2208
rfemur -20.3815 8.75749 22.5223
rtibia 11.3403
rfoot -26.9819 -5.60945
rtoes -24.6974
lfemur -46.0353 -9.38371 -18.8296
ltibia 54.4936
lfoot -14.592 6.39497
ltoes -44.8964
153
root -1.20888 15.9309 35.2487 -153.61 0.807288 177.556
lowerback -31.0791 -1.51284 -5.39872
upperback -1.14354 0.842811 -0.831619
thorax 14.9712 0.349708 2.45186
lowerneck -1.00135 3.55594 -4.02461
upperneck 22.9968 1.40311 8.40236
head 7.01864 0.182546 3.4151
rclavicle -2.6339e-015 2.22639e-014
rhumerus -34.4731 -21.8892 -77.8106
rradius 27.8031
rwrist 1.31716
rhand -3.56659 -56.2251
rfingers 7.12502
rthumb 22.1701 -84.9738
lclavicle -2.6339e-015 2.22639e-014
lhumerus -31.597 10.7924 78.3838
lradius 16.2105
lwrist -10.8705
lhand -18.2058 -12.7658
lfingers 7.12502
lthumb 8.07168 17.0601
rfemur -20.2279 8.68727 22.4713
rtibia 11.367
rfoot -27.3606 -5.52001
rtoes -25.3545
lfemur -46.8231 -9.20609 -18.9797
ltibia 54.8704
lfoot -14.7848 6.42825
ltoes -43.1223
154
root -1.20554 15.9288 35.2027 -153.706 0.980512 177.47
lowerback -31.0423 -1.41191 -5.31652
upperback -1.09211 0.969597 -1.02224
thorax 15.0106 0.413046 2.25095
lowerneck -0.871534 3.5461 -3.95807
upperneck 22.9457 1.35753 8.46683
head 6.9821 0.163836 3.41893
rclavicle -4.12478e-015 4.77083e-015
rhumerus -34.4427 -21.9233 -78.0912
rradius 27.8321
rwrist 1.18599
rhand -3.61234 -57.1434
rfingers 7.12502
rthumb 22.1262 -85.8973
lclavicle -4.12478e-015 4.77083e-015
lhumerus -31.7401 9.80275 78.593
lradius 16.6084
lwrist -10.0105
lhand -18.244 -12.645
lfingers 7.12502
lthumb 8.03486 17.1823
rfemur -19.8981 8.29446 22.4244
rtibia 11.2426
rfoot -27.4843 -5.09724
rtoes -25.7496
lfemur -47.5289 -9.06672 -19.1676
ltibia 55.1001
lfoot -14.9861 6.66201
ltoes -43.8122
155
root -1.19782 15.9266 35.1607 -153.79 0.974339 177.369
lowerback -30.8336 -1.34204 -5.50145
upperback -1.06876 1.12408 -1.13586
thorax 14.9316 0.4718 2.28805
lowerneck -0.883034 3.48716 -3.74461
upperneck 22.9359 1.25391 8.48612
head 6.99146 0.134315 3.38294
rclavicle -5.26779e-015 2.98177e-014
rhumerus -34.6009 -21.9842 -78.2389
rradius 28.1771
rwrist 0.868951
rhand -3.61521 -57.9529
rfingers 7.12502
rthumb 22.1234 -86.7071
lclavicle -5.26779e-015 2.98177e-014
lhumerus -31.8339 8.61202 78.9654
lradius 17.0468
lwrist -9.38137
lhand -18.3975 -12.3157
lfingers 7.12502
lthumb 7.88671 17.5172
rfemur -19.4191 7.93229 22.4479
rtibia 10.8427
rfoot -27.752 -4.83552
rtoes -26.1306
lfemur -48.2757 -9.01984 -19.2868
ltibia 55.2893
lfoot -14.9396 6.85066
ltoes -44.599
156
root -1.19105 15.9211 35.1139 -153.818 1.05608 177.317
lowerback -30.7931 -1.44596 -5.7022
upperback -0.982582 1.01329 -0.975018
thorax 15.0145 0.39102 2.52608
lowerneck -0.959227 3.56307 -4.03021
upperneck 22.9777 1.37468 8.55701
head 7.00405 0.177973 3.46431
rclavicle -1.2424e-015 1.15295e-014
rhumerus -34.1612 -22.2372 -77.9601
rradius 27.6274
rwrist 1.46177
rhand -3.59697 -57.436
rfingers 7.12502
rthumb 22.1409 -86.1882
lclavicle -1.2424e-015 1.15295e-014
lhumerus -31.9131 8.68017 79.3176
lradius 17.3433
lwrist -9.1588
lhand -18.5561 -12.2207
lfingers 7.12502
lthumb 7.73363 17.6179
rfemur -18.9298 8.3112 22.3832
rtibia 10.3135
rfoot -27.201 -5.11386
rtoes -26.8065
lfemur -49.0024 -8.96302 -19.3243
ltibia 55.233
lfoot -14.8446 7.08918
ltoes -44.5752
157
root -1.18532 15.9153 35.069 -153.773 1.14254 177.287
lowerback -30.8272 -1.53231 -5.88298
upperback -0.891371 0.926543 -0.814987
thorax 15.1372 0.321356 2.76305
lowerneck -1.11947 3.62377 -4.29138
upperneck 23.019 1.48282 8.6349
head 7.03228 0.223352 3.54478
rclavicle -3.27995e-015 2.38542e-014
rhumerus -33.8883 -21.7012 -78.0154
rradius 27.6713
rwrist 1.24653
rhand -3.34784 -57.2933
rfingers 7.12502
rthumb 22.3801 -86.0169
lclavicle -3.27995e-015 2.38542e-014
lhumerus -31.837 9.05959 79.5564
lradius 17.4766
lwrist -9.07358
lhand -18.4699 -12.3461
lfingers 7.12502
lthumb 7.81681 17.4894
rfemur -19.0554 8.68426 22.299
rtibia 10.8496
rfoot -27.87 -5.43013
rtoes -26.43
lfemur -49.8341 -8.98553 -19.257
ltibia 54.9716
lfoot -14.6677 7.44957
ltoes -44.9015
158
root -1.17625 15.9131 35.0264 -153.833 1.19444 177.238
lowerback -30.5969 -1.54057 -5.91212
upperback -0.900636 0.910425 -0.868123
thorax 15.0237 0.31557 2.71249
lowerneck -0.790675 3.67834 -4.37223
upperneck 22.9755 1.51942 8.67758
head 6.95468 0.219132 3.56765
rclavicle -6.55989e-015 2.52457e-014
rhumerus -33.8954 -21.2254 -78.3272
rradius 27.8314
rwrist 0.90355
rhand -3.10902 -57.2081
rfingers 7.12502
rthumb 22.6093 -85.9039
lclavicle -6.55989e-015 2.52457e-014
lhumerus -31.941 9.13942 79.4321
lradius 17.6355
lwrist -8.93443
lhand -18.3343 -12.5901
lfingers 7.12502
lthumb 7.94769 17.2405
rfemur -18.8569 9.18488 22.2651
rtibia 11.0211
rfoot -27.9556 -5.9934
rtoes -27.1984
lfemur -50.5365 -9.00817 -19.1861
ltibia 54.5792
lfoot -14.5395 7.51765
ltoes -44.5444
159
root -1.16943 15.9126 34.9816 -153.968 1.36484 177.212
lowerback -30.319 -1.39022 -5.84638
upperback -0.83616 1.07774 -1.05609
thorax 14.9645 0.393818 2.53713
lowerneck -0.831432 3.64905 -4.2975
upperneck 22.9302 1.47698 8.71577
head 6.95092 0.212229 3.565
rclavicle -9.74045e-015 -1.82882e-014
rhumerus -33.7821 -21.1986 -78.7202
rradius 27.8668
rwrist 0.673912
rhand -3.35401 -57.0552
rfingers 7.12502
rthumb 22.3742 -85.7795
lclavicle -9.74045e-015 -1.82882e-014
lhumerus -31.8788 8.8985 79.2707
lradius 17.7783
lwrist -8.84071
lhand -18.4242 -12.7548
lfingers 7.12502
lthumb 7.86094 17.079
rfemur -18.4791 9.48427 22.2624
rtibia 10.9594
rfoot -27.9961 -6.19371
rtoes -28.0972
lfemur -51.0879 -8.86294 -19.1939
ltibia 54.0678
lfoot -14.4953 7.54961
ltoes -44.5213
160
root -1.16647 15.8997 34.9386 -153.607 1.81464 177.376
lowerback -30.52 -1.12172 -5.68111
upperback -0.886173 1.41806 -1.18061
thorax 14.9787 0.565829 2.45069
lowerneck -0.866221 3.61388 -4.13524
upperneck 22.9096 1.4221 8.71644
head 6.95726 0.203052 3.53471
rclavicle 1.58034e-014 -2.74323e-014
rhumerus -33.8376 -21.3854 -78.8717
rradius 27.984
rwrist 0.801659
rhand -3.34001 -56.5636
rfingers 7.12502
rthumb 22.3876 -85.2863
lclavicle 1.58034e-014 -2.74323e-014
lhumerus -31.8171 8.62282 79.2219
lradius 17.9387
lwrist -8.82882
lhand -18.2596 -12.7086
lfingers 7.12502
lthumb 8.01975 17.1192
rfemur -18.8003 9.83028 22.2612
rtibia 10.9616
rfoot -28.0088 -5.86137
rtoes -27.8365
lfemur -52.2088 -8.54337 -18.9689
ltibia 53.5179
lfoot -14.3384 7.89583
ltoes -44.2259
161
root -1.1601 15.8979 34.8853 -153.842 1.7358 177.201
lowerback -30.1982 -1.17845 -5.77421
upperback -0.801654 1.34951 -1.26978
thorax 14.936 0.523916 2.37299
lowerneck -0.627851 3.64959 -4.10245
upperneck 22.8627 1.44163 8.72726
head 6.89869 0.202904 3.52832
rclavicle 1.49089e-015 -2.26615e-014
rhumerus -34.0721 -20.7806 -79.2841
rradius 28.6792
rwrist 0.419003
rhand -3.14943 -56.7328
rfingers 7.12502
rthumb 22.5705 -85.4334
lclavicle 1.49089e-015 -2.26615e-014
lhumerus -31.9209 8.73207 79.0375
lradius 18.1205
lwrist -8.77054
lhand -17.8241 -12.6951
lfingers 7.12502
lthumb 8.4401 17.1162
rfemur -18.2464 9.85226 22.1912
rtibia 10.8487
rfoot -28.1553 -5.69986
rtoes -26.4874
lfemur -52.5164 -8.8897 -18.9337
ltibia 52.6278
lfoot -14.6583 7.63672
ltoes -41.9486
